<?xml version="1.0" standalone="no"?>
<!DOCTYPE svg PUBLIC "-//W3C//DTD SVG 20010904//EN"
 "http://www.w3.org/TR/2001/REC-SVG-20010904/DTD/svg10.dtd">
<svg version="1.0" xmlns="http://www.w3.org/2000/svg"
 width="1073.000000pt" height="1073.000000pt" viewBox="0 0 1073.000000 1073.000000"
 preserveAspectRatio="xMidYMid meet">
<metadata>
Created by potrace 1.11, written by Peter Selinger 2001-2013
</metadata>
<g transform="translate(0.000000,1073.000000) scale(0.100000,-0.100000)"
fill="#000000" stroke="none">
<path d="M0 5365 l0 -5365 5365 0 5365 0 0 3485 0 3485 -32 0 c-66 1 -175 31
-258 71 -119 59 -230 170 -289 289 -94 193 -94 387 0 580 59 119 170 230 289
289 83 40 192 70 258 71 l32 0 0 1230 0 1230 -3800 0 -3800 0 0 -32 c-1 -66
-31 -175 -71 -258 -59 -119 -170 -230 -289 -289 -193 -94 -387 -94 -580 0
-119 59 -230 170 -289 289 -40 83 -70 192 -71 258 l0 32 -915 0 -915 0 0
-5365z m1489 4777 c170 -288 462 -490 789 -547 108 -19 296 -19 404 0 327 57
619 259 789 547 l52 88 3354 0 3353 0 0 -783 0 -784 -88 -52 c-288 -170 -490
-462 -547 -789 -19 -108 -19 -296 0 -404 57 -327 259 -619 547 -789 l88 -52 0
-3039 0 -3038 -4865 0 -4865 0 0 4865 0 4865 468 0 469 0 52 -88z"/>
<path d="M2450 5360 l0 -2600 2915 0 2915 0 0 2600 0 2600 -2915 0 -2915 0 0
-2600z m2485 785 c245 -67 424 -236 503 -473 23 -69 26 -94 26 -232 1 -136 -2
-164 -22 -230 -82 -259 -243 -416 -509 -496 -78 -24 -105 -27 -233 -27 -129 0
-155 3 -235 27 -216 65 -366 187 -455 371 -50 104 -69 177 -76 300 -24 386
199 686 571 769 92 20 343 15 430 -9z m1501 -29 c100 -25 169 -63 224 -123 63
-69 84 -134 78 -243 -7 -124 -65 -208 -181 -264 l-48 -23 43 -12 c102 -31 175
-92 217 -181 22 -47 26 -69 26 -150 0 -84 -3 -102 -28 -152 -58 -119 -169
-196 -332 -229 -77 -16 -137 -19 -412 -19 l-323 0 0 711 0 711 338 -5 c260 -4
351 -8 398 -21z"/>
<path d="M4632 5860 c-72 -11 -153 -52 -211 -109 -84 -81 -121 -179 -121 -316
0 -232 136 -406 339 -435 259 -36 461 152 463 430 1 281 -203 468 -470 430z"/>
<path d="M6030 5716 l0 -146 108 0 c181 0 259 38 269 134 7 60 -11 100 -56
128 -32 21 -51 23 -178 26 l-143 4 0 -146z"/>
<path d="M6030 5160 l0 -162 153 4 c138 3 156 5 193 26 54 31 78 74 78 138 0
65 -22 100 -82 127 -39 18 -71 22 -194 25 l-148 4 0 -162z"/>
</g>
</svg>
